<?xml version="1.0"?>
<svg xmlns="http://www.w3.org/2000/svg" xmlns:xlink="http://www.w3.org/1999/xlink" xmlns:svgjs="http://svgjs.com/svgjs" version="1.1" width="512" height="512" x="0" y="0" viewBox="0 0 24 24" style="enable-background:new 0 0 512 512" xml:space="preserve"><g><g xmlns="http://www.w3.org/2000/svg" id="_01_align_center" data-name="01 align center"><path d="M2,5.99a2,2,0,0,0-2,2v8.014a2,2,0,0,0,2,2H4.8L12,24V0L4.8,5.99Zm8-1.722V19.729L5.525,16.007H2V7.993H5.525Z" fill="#000000" data-original="#000000"/><path d="M20,12a5.009,5.009,0,0,0-5-5.008H14v2h1a3.005,3.005,0,0,1,0,6.01H14v2h1A5.01,5.01,0,0,0,20,12Z" fill="#000000" data-original="#000000"/><path d="M15,2.985H14v2h1a7.012,7.012,0,0,1,0,14.024H14v2h1a9.015,9.015,0,0,0,0-18.03Z" fill="#000000" data-original="#000000"/></g></g></svg>
